<mxfile host="Electron" modified="2024-03-31T13:24:01.925Z" agent="Mozilla/5.0 (Windows NT 10.0; Win64; x64) AppleWebKit/537.36 (KHTML, like Gecko) draw.io/24.1.0 Chrome/120.0.6099.109 Electron/28.1.0 Safari/537.36" etag="F4CnoGfkgkZ21e1a_DGW" version="24.1.0" type="device">
  <diagram name="Page-1" id="RZVQxzq3Kgt89hsoHabK">
    <mxGraphModel dx="1195" dy="704" grid="1" gridSize="10" guides="1" tooltips="1" connect="1" arrows="1" fold="1" page="1" pageScale="1" pageWidth="850" pageHeight="1100" math="0" shadow="0">
      <root>
        <mxCell id="0" />
        <mxCell id="1" parent="0" />
        <mxCell id="LMQxB59nfSCNr9-hnTwF-2" value="" style="rounded=0;whiteSpace=wrap;html=1;fillColor=#f5f5f5;fontColor=#333333;strokeColor=#666666;" parent="1" vertex="1">
          <mxGeometry x="120" y="460" width="560" height="310" as="geometry" />
        </mxCell>
        <mxCell id="LMQxB59nfSCNr9-hnTwF-3" value="" style="rounded=0;whiteSpace=wrap;html=1;" parent="1" vertex="1">
          <mxGeometry x="260" y="460" width="410" height="290" as="geometry" />
        </mxCell>
        <mxCell id="LMQxB59nfSCNr9-hnTwF-4" value="" style="rounded=0;whiteSpace=wrap;html=1;" parent="1" vertex="1">
          <mxGeometry x="120" y="750" width="560" height="20" as="geometry" />
        </mxCell>
        <mxCell id="LMQxB59nfSCNr9-hnTwF-5" value="Connected" style="text;html=1;align=center;verticalAlign=middle;whiteSpace=wrap;rounded=0;" parent="1" vertex="1">
          <mxGeometry x="130" y="745" width="60" height="30" as="geometry" />
        </mxCell>
        <mxCell id="LMQxB59nfSCNr9-hnTwF-6" value="" style="rounded=0;whiteSpace=wrap;html=1;" parent="1" vertex="1">
          <mxGeometry x="120" y="460" width="150" height="60" as="geometry" />
        </mxCell>
        <mxCell id="LMQxB59nfSCNr9-hnTwF-7" value="400000" style="rounded=0;whiteSpace=wrap;html=1;" parent="1" vertex="1">
          <mxGeometry x="200" y="500" width="70" height="20" as="geometry" />
        </mxCell>
        <mxCell id="LMQxB59nfSCNr9-hnTwF-8" value="Clock Freq" style="text;html=1;align=center;verticalAlign=middle;whiteSpace=wrap;rounded=0;" parent="1" vertex="1">
          <mxGeometry x="120" y="505" width="80" height="10" as="geometry" />
        </mxCell>
        <mxCell id="LMQxB59nfSCNr9-hnTwF-10" value="" style="rounded=0;whiteSpace=wrap;html=1;" parent="1" vertex="1">
          <mxGeometry x="260" y="520" width="10" height="210" as="geometry" />
        </mxCell>
        <mxCell id="LMQxB59nfSCNr9-hnTwF-11" value="" style="rounded=0;whiteSpace=wrap;html=1;fillColor=#f5f5f5;fontColor=#333333;strokeColor=#666666;" parent="1" vertex="1">
          <mxGeometry x="260" y="520" width="10" height="80" as="geometry" />
        </mxCell>
        <mxCell id="LMQxB59nfSCNr9-hnTwF-12" value="" style="rounded=0;whiteSpace=wrap;html=1;" parent="1" vertex="1">
          <mxGeometry x="310" y="460" width="360" height="30" as="geometry" />
        </mxCell>
        <mxCell id="LMQxB59nfSCNr9-hnTwF-14" value="Slave Addr" style="text;html=1;align=center;verticalAlign=middle;whiteSpace=wrap;rounded=0;" parent="1" vertex="1">
          <mxGeometry x="120" y="485" width="80" height="10" as="geometry" />
        </mxCell>
        <mxCell id="LMQxB59nfSCNr9-hnTwF-15" value="0x42" style="rounded=0;whiteSpace=wrap;html=1;" parent="1" vertex="1">
          <mxGeometry x="200" y="480" width="70" height="20" as="geometry" />
        </mxCell>
        <mxCell id="LMQxB59nfSCNr9-hnTwF-16" value="I2c2" style="rounded=0;whiteSpace=wrap;html=1;" parent="1" vertex="1">
          <mxGeometry x="200" y="440" width="70" height="20" as="geometry" />
        </mxCell>
        <mxCell id="LMQxB59nfSCNr9-hnTwF-17" value="I2c1" style="rounded=0;whiteSpace=wrap;html=1;fillColor=#f5f5f5;fontColor=#333333;strokeColor=#666666;" parent="1" vertex="1">
          <mxGeometry x="120" y="440" width="80" height="20" as="geometry" />
        </mxCell>
        <mxCell id="LMQxB59nfSCNr9-hnTwF-24" value="Add" style="rounded=0;whiteSpace=wrap;html=1;fillColor=#d5e8d4;strokeColor=#82b366;" parent="1" vertex="1">
          <mxGeometry x="120" y="730" width="150" height="20" as="geometry" />
        </mxCell>
        <mxCell id="LMQxB59nfSCNr9-hnTwF-25" value="Config" style="rounded=0;whiteSpace=wrap;html=1;fillColor=#dae8fc;strokeColor=#6c8ebf;" parent="1" vertex="1">
          <mxGeometry x="120" y="520" width="150" height="20" as="geometry" />
        </mxCell>
        <mxCell id="LMQxB59nfSCNr9-hnTwF-28" value="" style="rounded=0;whiteSpace=wrap;html=1;" parent="1" vertex="1">
          <mxGeometry x="120" y="660" width="140" height="40" as="geometry" />
        </mxCell>
        <mxCell id="LMQxB59nfSCNr9-hnTwF-30" value="Slave Addr" style="rounded=0;whiteSpace=wrap;html=1;" parent="1" vertex="1">
          <mxGeometry x="140" y="660" width="70" height="20" as="geometry" />
        </mxCell>
        <mxCell id="LMQxB59nfSCNr9-hnTwF-31" value="R" style="rounded=0;whiteSpace=wrap;html=1;" parent="1" vertex="1">
          <mxGeometry x="120" y="660" width="20" height="20" as="geometry" />
        </mxCell>
        <mxCell id="LMQxB59nfSCNr9-hnTwF-34" value="asdkjWEnd" style="rounded=0;whiteSpace=wrap;html=1;" parent="1" vertex="1">
          <mxGeometry x="140" y="680" width="100" height="20" as="geometry" />
        </mxCell>
        <mxCell id="LMQxB59nfSCNr9-hnTwF-36" value="" style="sketch=0;outlineConnect=0;fontColor=#232F3E;gradientColor=none;fillColor=#232F3D;strokeColor=none;dashed=0;verticalLabelPosition=bottom;verticalAlign=top;align=center;html=1;fontSize=12;fontStyle=0;aspect=fixed;pointerEvents=1;shape=mxgraph.aws4.gear;" parent="1" vertex="1">
          <mxGeometry x="120" y="680" width="20" height="20" as="geometry" />
        </mxCell>
        <mxCell id="LMQxB59nfSCNr9-hnTwF-37" value="" style="sketch=0;html=1;aspect=fixed;strokeColor=none;shadow=0;fillColor=#3B8DF1;verticalAlign=top;labelPosition=center;verticalLabelPosition=bottom;shape=mxgraph.gcp2.play_start" parent="1" vertex="1">
          <mxGeometry x="250" y="520" width="20" height="20" as="geometry" />
        </mxCell>
        <mxCell id="LMQxB59nfSCNr9-hnTwF-38" value="" style="sketch=0;html=1;aspect=fixed;strokeColor=none;shadow=0;fillColor=#3B8DF1;verticalAlign=top;labelPosition=center;verticalLabelPosition=bottom;shape=mxgraph.gcp2.play_start" parent="1" vertex="1">
          <mxGeometry x="240" y="680" width="20" height="20" as="geometry" />
        </mxCell>
        <mxCell id="LMQxB59nfSCNr9-hnTwF-39" value="I2c1" style="rounded=0;whiteSpace=wrap;html=1;" parent="1" vertex="1">
          <mxGeometry x="310" y="460" width="30" height="30" as="geometry" />
        </mxCell>
        <mxCell id="LMQxB59nfSCNr9-hnTwF-40" value="M" style="rounded=0;whiteSpace=wrap;html=1;fillColor=#fff2cc;strokeColor=#d6b656;" parent="1" vertex="1">
          <mxGeometry x="340" y="460" width="30" height="30" as="geometry" />
        </mxCell>
        <mxCell id="LMQxB59nfSCNr9-hnTwF-41" value="W" style="rounded=0;whiteSpace=wrap;html=1;fillColor=#f8cecc;strokeColor=#b85450;" parent="1" vertex="1">
          <mxGeometry x="370" y="460" width="30" height="30" as="geometry" />
        </mxCell>
        <mxCell id="LMQxB59nfSCNr9-hnTwF-42" value="Slave Addr" style="rounded=0;whiteSpace=wrap;html=1;" parent="1" vertex="1">
          <mxGeometry x="400" y="460" width="60" height="30" as="geometry" />
        </mxCell>
        <mxCell id="LMQxB59nfSCNr9-hnTwF-43" value="Data" style="rounded=0;whiteSpace=wrap;html=1;" parent="1" vertex="1">
          <mxGeometry x="500" y="460" width="110" height="30" as="geometry" />
        </mxCell>
        <mxCell id="LMQxB59nfSCNr9-hnTwF-44" value="Status" style="rounded=0;whiteSpace=wrap;html=1;" parent="1" vertex="1">
          <mxGeometry x="610" y="460" width="60" height="30" as="geometry" />
        </mxCell>
        <mxCell id="LMQxB59nfSCNr9-hnTwF-45" value="Time" style="rounded=0;whiteSpace=wrap;html=1;" parent="1" vertex="1">
          <mxGeometry x="270" y="460" width="40" height="30" as="geometry" />
        </mxCell>
        <mxCell id="LMQxB59nfSCNr9-hnTwF-46" value="I2c2" style="rounded=0;whiteSpace=wrap;html=1;" parent="1" vertex="1">
          <mxGeometry x="310" y="490" width="30" height="30" as="geometry" />
        </mxCell>
        <mxCell id="LMQxB59nfSCNr9-hnTwF-47" value="S" style="rounded=0;whiteSpace=wrap;html=1;fillColor=#e1d5e7;strokeColor=#9673a6;" parent="1" vertex="1">
          <mxGeometry x="340" y="490" width="30" height="30" as="geometry" />
        </mxCell>
        <mxCell id="LMQxB59nfSCNr9-hnTwF-48" value="W" style="rounded=0;whiteSpace=wrap;html=1;fillColor=#f8cecc;strokeColor=#b85450;" parent="1" vertex="1">
          <mxGeometry x="370" y="490" width="30" height="30" as="geometry" />
        </mxCell>
        <mxCell id="LMQxB59nfSCNr9-hnTwF-49" value="Mem Addr" style="rounded=0;whiteSpace=wrap;html=1;" parent="1" vertex="1">
          <mxGeometry x="460" y="490" width="40" height="30" as="geometry" />
        </mxCell>
        <mxCell id="LMQxB59nfSCNr9-hnTwF-50" value="Data" style="rounded=0;whiteSpace=wrap;html=1;" parent="1" vertex="1">
          <mxGeometry x="500" y="490" width="110" height="30" as="geometry" />
        </mxCell>
        <mxCell id="LMQxB59nfSCNr9-hnTwF-51" value="Status" style="rounded=0;whiteSpace=wrap;html=1;" parent="1" vertex="1">
          <mxGeometry x="610" y="490" width="60" height="30" as="geometry" />
        </mxCell>
        <mxCell id="LMQxB59nfSCNr9-hnTwF-52" value="Time" style="rounded=0;whiteSpace=wrap;html=1;" parent="1" vertex="1">
          <mxGeometry x="270" y="490" width="40" height="30" as="geometry" />
        </mxCell>
        <mxCell id="LMQxB59nfSCNr9-hnTwF-54" value="Who is John Galt?" style="text;html=1;align=center;verticalAlign=middle;whiteSpace=wrap;rounded=0;" parent="1" vertex="1">
          <mxGeometry x="560" y="745" width="120" height="30" as="geometry" />
        </mxCell>
        <mxCell id="LMQxB59nfSCNr9-hnTwF-55" value="Mem Addr" style="rounded=0;whiteSpace=wrap;html=1;" parent="1" vertex="1">
          <mxGeometry x="460" y="460" width="40" height="30" as="geometry" />
        </mxCell>
        <mxCell id="LMQxB59nfSCNr9-hnTwF-56" value="" style="rounded=0;whiteSpace=wrap;html=1;" parent="1" vertex="1">
          <mxGeometry x="400" y="490" width="60" height="30" as="geometry" />
        </mxCell>
        <mxCell id="LMQxB59nfSCNr9-hnTwF-57" value="I2c1" style="rounded=0;whiteSpace=wrap;html=1;" parent="1" vertex="1">
          <mxGeometry x="310" y="520" width="30" height="30" as="geometry" />
        </mxCell>
        <mxCell id="LMQxB59nfSCNr9-hnTwF-58" value="M" style="rounded=0;whiteSpace=wrap;html=1;fillColor=#fff2cc;strokeColor=#d6b656;" parent="1" vertex="1">
          <mxGeometry x="340" y="520" width="30" height="30" as="geometry" />
        </mxCell>
        <mxCell id="LMQxB59nfSCNr9-hnTwF-59" value="R" style="rounded=0;whiteSpace=wrap;html=1;fillColor=#dae8fc;strokeColor=#6c8ebf;" parent="1" vertex="1">
          <mxGeometry x="370" y="520" width="30" height="30" as="geometry" />
        </mxCell>
        <mxCell id="LMQxB59nfSCNr9-hnTwF-60" value="Slave Addr" style="rounded=0;whiteSpace=wrap;html=1;" parent="1" vertex="1">
          <mxGeometry x="400" y="520" width="60" height="30" as="geometry" />
        </mxCell>
        <mxCell id="LMQxB59nfSCNr9-hnTwF-61" value="Data" style="rounded=0;whiteSpace=wrap;html=1;" parent="1" vertex="1">
          <mxGeometry x="500" y="520" width="110" height="30" as="geometry" />
        </mxCell>
        <mxCell id="LMQxB59nfSCNr9-hnTwF-62" value="Status" style="rounded=0;whiteSpace=wrap;html=1;" parent="1" vertex="1">
          <mxGeometry x="610" y="520" width="60" height="30" as="geometry" />
        </mxCell>
        <mxCell id="LMQxB59nfSCNr9-hnTwF-63" value="Time" style="rounded=0;whiteSpace=wrap;html=1;" parent="1" vertex="1">
          <mxGeometry x="270" y="520" width="40" height="30" as="geometry" />
        </mxCell>
        <mxCell id="LMQxB59nfSCNr9-hnTwF-64" value="Mem Addr" style="rounded=0;whiteSpace=wrap;html=1;" parent="1" vertex="1">
          <mxGeometry x="460" y="520" width="40" height="30" as="geometry" />
        </mxCell>
        <mxCell id="LMQxB59nfSCNr9-hnTwF-65" value="I2c2" style="rounded=0;whiteSpace=wrap;html=1;" parent="1" vertex="1">
          <mxGeometry x="310" y="550" width="30" height="30" as="geometry" />
        </mxCell>
        <mxCell id="LMQxB59nfSCNr9-hnTwF-66" value="S" style="rounded=0;whiteSpace=wrap;html=1;fillColor=#e1d5e7;strokeColor=#9673a6;" parent="1" vertex="1">
          <mxGeometry x="340" y="550" width="30" height="30" as="geometry" />
        </mxCell>
        <mxCell id="LMQxB59nfSCNr9-hnTwF-67" value="R" style="rounded=0;whiteSpace=wrap;html=1;fillColor=#dae8fc;strokeColor=#6c8ebf;" parent="1" vertex="1">
          <mxGeometry x="370" y="550" width="30" height="30" as="geometry" />
        </mxCell>
        <mxCell id="LMQxB59nfSCNr9-hnTwF-68" value="Mem Addr" style="rounded=0;whiteSpace=wrap;html=1;" parent="1" vertex="1">
          <mxGeometry x="460" y="550" width="40" height="30" as="geometry" />
        </mxCell>
        <mxCell id="LMQxB59nfSCNr9-hnTwF-69" value="Data" style="rounded=0;whiteSpace=wrap;html=1;" parent="1" vertex="1">
          <mxGeometry x="500" y="550" width="110" height="30" as="geometry" />
        </mxCell>
        <mxCell id="LMQxB59nfSCNr9-hnTwF-70" value="Status" style="rounded=0;whiteSpace=wrap;html=1;" parent="1" vertex="1">
          <mxGeometry x="610" y="550" width="60" height="30" as="geometry" />
        </mxCell>
        <mxCell id="LMQxB59nfSCNr9-hnTwF-71" value="Time" style="rounded=0;whiteSpace=wrap;html=1;" parent="1" vertex="1">
          <mxGeometry x="270" y="550" width="40" height="30" as="geometry" />
        </mxCell>
        <mxCell id="LMQxB59nfSCNr9-hnTwF-72" value="" style="rounded=0;whiteSpace=wrap;html=1;" parent="1" vertex="1">
          <mxGeometry x="400" y="550" width="60" height="30" as="geometry" />
        </mxCell>
        <mxCell id="LMQxB59nfSCNr9-hnTwF-73" value="" style="rounded=0;whiteSpace=wrap;html=1;" parent="1" vertex="1">
          <mxGeometry x="120" y="620" width="140" height="40" as="geometry" />
        </mxCell>
        <mxCell id="LMQxB59nfSCNr9-hnTwF-74" value="Slave Addr" style="rounded=0;whiteSpace=wrap;html=1;" parent="1" vertex="1">
          <mxGeometry x="140" y="620" width="70" height="20" as="geometry" />
        </mxCell>
        <mxCell id="LMQxB59nfSCNr9-hnTwF-75" value="W" style="rounded=0;whiteSpace=wrap;html=1;" parent="1" vertex="1">
          <mxGeometry x="120" y="620" width="20" height="20" as="geometry" />
        </mxCell>
        <mxCell id="LMQxB59nfSCNr9-hnTwF-76" value="asdkjWEnd" style="rounded=0;whiteSpace=wrap;html=1;" parent="1" vertex="1">
          <mxGeometry x="140" y="640" width="100" height="20" as="geometry" />
        </mxCell>
        <mxCell id="LMQxB59nfSCNr9-hnTwF-77" value="" style="sketch=0;html=1;aspect=fixed;strokeColor=none;shadow=0;fillColor=#3B8DF1;verticalAlign=top;labelPosition=center;verticalLabelPosition=bottom;shape=mxgraph.gcp2.play_start" parent="1" vertex="1">
          <mxGeometry x="240" y="640" width="20" height="20" as="geometry" />
        </mxCell>
        <mxCell id="LMQxB59nfSCNr9-hnTwF-78" value="" style="sketch=0;outlineConnect=0;fontColor=#232F3E;gradientColor=none;fillColor=#232F3D;strokeColor=none;dashed=0;verticalLabelPosition=bottom;verticalAlign=top;align=center;html=1;fontSize=12;fontStyle=0;aspect=fixed;pointerEvents=1;shape=mxgraph.aws4.gear;" parent="1" vertex="1">
          <mxGeometry x="120" y="640" width="20" height="20" as="geometry" />
        </mxCell>
        <mxCell id="LMQxB59nfSCNr9-hnTwF-79" value="Addr" style="rounded=0;whiteSpace=wrap;html=1;" parent="1" vertex="1">
          <mxGeometry x="210" y="620" width="50" height="20" as="geometry" />
        </mxCell>
        <mxCell id="LMQxB59nfSCNr9-hnTwF-80" value="Addr" style="rounded=0;whiteSpace=wrap;html=1;" parent="1" vertex="1">
          <mxGeometry x="210" y="660" width="50" height="20" as="geometry" />
        </mxCell>
        <mxCell id="LMQxB59nfSCNr9-hnTwF-81" value="Log" style="rounded=0;whiteSpace=wrap;html=1;" parent="1" vertex="1">
          <mxGeometry x="270" y="440" width="410" height="20" as="geometry" />
        </mxCell>
        <mxCell id="LMQxB59nfSCNr9-hnTwF-82" value="Mem Width" style="text;html=1;align=center;verticalAlign=middle;whiteSpace=wrap;rounded=0;" parent="1" vertex="1">
          <mxGeometry x="120" y="465" width="80" height="10" as="geometry" />
        </mxCell>
        <mxCell id="LMQxB59nfSCNr9-hnTwF-83" value="2 Bytes" style="rounded=0;whiteSpace=wrap;html=1;" parent="1" vertex="1">
          <mxGeometry x="200" y="460" width="70" height="20" as="geometry" />
        </mxCell>
        <mxCell id="tgzv-gL6YfShwe89MsI7-1" value="Config Panel" style="rounded=0;whiteSpace=wrap;html=1;" vertex="1" parent="1">
          <mxGeometry x="120" y="40" width="200" height="100" as="geometry" />
        </mxCell>
        <mxCell id="tgzv-gL6YfShwe89MsI7-2" value="Request Panel" style="rounded=0;whiteSpace=wrap;html=1;" vertex="1" parent="1">
          <mxGeometry x="120" y="140" width="210" height="210" as="geometry" />
        </mxCell>
        <mxCell id="tgzv-gL6YfShwe89MsI7-3" value="Log Panel" style="rounded=0;whiteSpace=wrap;html=1;" vertex="1" parent="1">
          <mxGeometry x="320" y="40" width="360" height="310" as="geometry" />
        </mxCell>
        <mxCell id="tgzv-gL6YfShwe89MsI7-4" value="Footer Panel" style="rounded=0;whiteSpace=wrap;html=1;" vertex="1" parent="1">
          <mxGeometry x="120" y="350" width="560" height="20" as="geometry" />
        </mxCell>
      </root>
    </mxGraphModel>
  </diagram>
</mxfile>
